<?xml version="1.0" standalone="no"?>
<!DOCTYPE svg PUBLIC "-//W3C//DTD SVG 20010904//EN"
 "http://www.w3.org/TR/2001/REC-SVG-20010904/DTD/svg10.dtd">
<svg version="1.0" xmlns="http://www.w3.org/2000/svg"
 width="80.000000pt" height="80.000000pt" viewBox="0 0 80.000000 80.000000"
 preserveAspectRatio="xMidYMid meet">
<metadata>
Created by potrace 1.11, written by Peter Selinger 2001-2013
</metadata>
<g transform="translate(0.000000,80.000000) scale(0.100000,-0.100000)"
fill="#000000" stroke="none">
<path d="M0 400 l0 -400 400 0 400 0 0 400 0 400 -400 0 -400 0 0 -400z m540
218 c19 -13 35 -29 38 -37 3 -8 -9 -3 -28 10 -29 22 -43 24 -169 27 l-138 3
-7 -183 c-3 -100 -11 -187 -16 -192 -10 -10 -6 191 6 332 l6 62 137 0 c127 0
141 -2 171 -22z m-60 -129 c0 -5 -9 -18 -20 -29 -26 -26 -106 -29 -96 -4 3 9
6 22 6 29 0 9 16 15 48 17 52 3 62 1 62 -13z m144 -61 c-7 -35 -84 -104 -96
-86 -5 8 -2 17 8 23 51 31 66 52 72 100 5 47 6 48 14 20 4 -16 5 -42 2 -57z
m-242 -150 l-3 -118 -65 0 c-36 0 -64 4 -64 10 0 6 25 10 55 10 l55 0 0 79 c0
43 3 100 7 126 10 79 18 23 15 -107z m57 -33 c0 -5 -4 -3 -9 5 -5 8 -9 22 -9
30 0 16 17 -16 18 -35z m164 -65 c5 -19 0 -20 -64 -20 -39 0 -69 4 -69 10 0 6
27 10 60 10 33 0 60 4 60 10 0 17 7 11 13 -10z"/>
<path d="M390 470 c0 -13 20 -13 40 0 12 8 9 10 -12 10 -16 0 -28 -4 -28 -10z"/>
</g>
</svg>
