<?xml version="1.0" standalone="no"?>
<!DOCTYPE svg PUBLIC "-//W3C//DTD SVG 20010904//EN"
 "http://www.w3.org/TR/2001/REC-SVG-20010904/DTD/svg10.dtd">
<svg version="1.0" xmlns="http://www.w3.org/2000/svg"
 width="200.000000pt" height="200.000000pt" viewBox="0 0 200.000000 200.000000"
 preserveAspectRatio="xMidYMid meet">
<metadata>
Created by potrace 1.11, written by Peter Selinger 2001-2013
</metadata>
<g transform="translate(0.000000,200.000000) scale(0.100000,-0.100000)"
fill="#000000" stroke="none">
<path d="M137 1940 c-50 -9 -67 -28 -78 -82 -11 -57 -11 -1493 1 -1628 8 -98
10 -106 38 -131 24 -22 43 -28 103 -33 121 -11 633 18 799 45 129 21 110 7
493 388 197 196 363 367 369 381 28 72 52 292 69 635 12 266 6 347 -30 387
-25 28 -33 30 -131 38 -127 11 -1579 11 -1633 0z"/>
</g>
</svg>
